<svg id="Layer_1" data-name="Layer 1" xmlns="http://www.w3.org/2000/svg" viewBox="0 0 191 127.98"><defs><style>.cls-1,.cls-2{stroke:#000;stroke-miterlimit:10;}.cls-2{fill:#fff;}</style></defs><title>HB_menu</title><path d="M257.52,111.32a5.7,5.7,0,0,1,5.69,5.7v8a5.7,5.7,0,0,1-5.69,5.7H99.5a5.7,5.7,0,0,1-5.7-5.7v-8a5.7,5.7,0,0,1,5.7-5.7h158m0-6.3H99.5a12,12,0,0,0-12,12v8a12,12,0,0,0,12,12h158a12,12,0,0,0,12-12v-8a12,12,0,0,0-12-12Z" transform="translate(-83 -105.02)"/><path d="M257.5,207.53A5.47,5.47,0,0,1,263,213v8a5.47,5.47,0,0,1-5.47,5.47H99.5A5.47,5.47,0,0,1,94,221v-8a5.47,5.47,0,0,1,5.47-5.47H215.08a11.51,11.51,0,0,0,17.18,0H257.5m0-6.53H228.38a4.81,4.81,0,0,1-9.42,0H99.5a12,12,0,0,0-12,12v8a12,12,0,0,0,12,12h158a12,12,0,0,0,12-12v-8a12,12,0,0,0-12-12Z" transform="translate(-83 -105.02)"/><path d="M104.49,158.43a43.05,43.05,0,0,0-.91,7c-.06,1.28-.06,2.67,0,4a46.87,46.87,0,0,0,.84,7.07H95c-3,0-5.57-3.36-5.57-7.35v-3.44c0-4,2.55-7.35,5.57-7.35h9.49m8.84-6.43H95c-6.6,0-12,6.2-12,13.78v3.44C83,176.8,88.4,183,95,183h18a41.7,41.7,0,0,1-3-13.78c-.07-1.64,0-2.9,0-3.44A37.84,37.84,0,0,1,113.33,152Z" transform="translate(-83 -105.02)"/><path d="M262,158.43c3,0,5.57,3.36,5.57,7.35v3.44c0,4-2.55,7.35-5.57,7.35h-9.49a43.05,43.05,0,0,0,.91-7c.06-1.28.06-2.67,0-4a46.87,46.87,0,0,0-.84-7.07H262m0-6.43H244a41.7,41.7,0,0,1,3,13.78c.07,1.64,0,2.9,0,3.44A37.84,37.84,0,0,1,243.67,183H262c6.6,0,12-6.2,12-13.78v-3.44c0-7.58-5.4-13.78-12-13.78Z" transform="translate(-83 -105.02)"/><path class="cls-1" d="M121.64,184.55V161.32a9.77,9.77,0,0,1,2.62-7.06,9,9,0,0,1,6.8-2.74,8.41,8.41,0,0,1,7.63,4.55,10.65,10.65,0,0,1,3.49-3.5,9.27,9.27,0,0,1,4.61-1,8.21,8.21,0,0,1,6.65,2.74q2.33,2.73,2.32,7.88v22.41h-9.59v-21a5.39,5.39,0,0,0-.25-2.06,1,1,0,0,0-1-.51c-.95,0-1.42.8-1.42,2.41v21.13h-9.58v-21a5.37,5.37,0,0,0-.26-2.05,1,1,0,0,0-1-.52c-.94,0-1.42.86-1.42,2.57v21Z" transform="translate(-83 -105.02)"/><path class="cls-1" d="M178.76,164.86V172H172.5a3.19,3.19,0,0,0-1.81.38,1.45,1.45,0,0,0-.53,1.27,1.4,1.4,0,0,0,.55,1.33,4.91,4.91,0,0,0,2.22.32h6.44v9.21h-7.53c-3.54,0-6.25-.84-8.12-2.54s-2.81-4.13-2.81-7.33V162.05a9.48,9.48,0,0,1,2.65-7.18c1.77-1.7,4.27-2.55,7.48-2.55h8.33v9.26h-6.11c-1.66,0-2.48.53-2.48,1.6a1.4,1.4,0,0,0,.59,1.31,4.19,4.19,0,0,0,2.1.37Z" transform="translate(-83 -105.02)"/><path class="cls-1" d="M184.21,184.55V163.63a11.35,11.35,0,0,1,12.07-12.11q5.46,0,8.35,3.21t2.89,9.23v20.59h-9.59V164c0-2-.7-3-2.1-3s-2,1-2,3v20.59Z" transform="translate(-83 -105.02)"/><path class="cls-2" d="M236,152.32v34q0,9-3.29,14.35T223.93,206c-3.63,0-6.42-1.74-8.34-5.22s-2.9-8.48-2.9-15V152.32h9.59v33.42q0,4.8,2.1,4.8c1.36,0,2-1.6,2-4.8V152.32Z" transform="translate(-83 -105.02)"/></svg>